
<svg width="8px" height="8px" viewBox="0 0 8 8" version="1.1" xmlns="http://www.w3.org/2000/svg" xmlns:xlink="http://www.w3.org/1999/xlink">
    <!-- Generator: Sketch 48.2 (47327) - http://www.bohemiancoding.com/sketch -->
    <desc>Created with Sketch.</desc>
    <defs>
        <polygon id="path-1" points="0 0 8 0 8 8 0 8"></polygon>
    </defs>
    <g id="Symbols" stroke="none" stroke-width="1" fill="none" fill-rule="evenodd">
        <g id="Notification" transform="translate(-486.000000, -17.000000)">
            <g id="Page-1">
                <g transform="translate(486.000000, 17.000000)">
                    <mask id="mask-2" fill="white">
                        <use xlink:href="#path-1"></use>
                    </mask>
                    <g id="Clip-2"></g>
                    <path d="M4.47136667,4 L7.90236667,0.569 C8.0327,0.438666667 8.0327,0.228 7.90236667,0.0976666667 C7.77203333,-0.0326666667 7.56136667,-0.0326666667 7.43103333,0.0976666667 L4.00003333,3.52866667 L0.569033333,0.0976666667 C0.4387,-0.0326666667 0.228033333,-0.0326666667 0.0977,0.0976666667 C-0.0326333333,0.228 -0.0326333333,0.438666667 0.0977,0.569 L3.5287,4 L0.0977,7.431 C-0.0326333333,7.56133333 -0.0326333333,7.772 0.0977,7.90233333 C0.1627,7.96733333 0.248033333,8 0.333366667,8 C0.4187,8 0.504033333,7.96733333 0.569033333,7.90233333 L4.00003333,4.47133333 L7.43103333,7.90233333 C7.49603333,7.96733333 7.58136667,8 7.6667,8 C7.75203333,8 7.83736667,7.96733333 7.90236667,7.90233333 C8.0327,7.772 8.0327,7.56133333 7.90236667,7.431 L4.47136667,4 Z" id="Fill-1" fill="#7EBFFC" mask="url(#mask-2)"></path>
                </g>
            </g>
        </g>
    </g>
</svg>