<svg xmlns="http://www.w3.org/2000/svg" viewBox="0 0 24 24"><path class="st0" d="M19.2 22h-8.1c-1.5 0-2.8-1.3-2.8-2.8v-8.1c0-1.5 1.3-2.8 2.8-2.8h8.1c1.5 0 2.8 1.3 2.8 2.8v8.1c0 1.5-1.3 2.8-2.8 2.8zm-8.1-11.7c-.4 0-.8.4-.8.8v8.1c0 .4.4.8.8.8h8.1c.4 0 .8-.4.8-.8v-8.1c0-.4-.4-.8-.8-.8h-8.1z"/><path class="st0" d="M5.7 15.7h-.9c-1.5 0-2.8-1.3-2.8-2.8V4.8C2 3.3 3.3 2 4.8 2h8.1c1.5 0 2.8 1.3 2.8 2.8v.9c0 .6-.4 1-1 1s-1-.4-1-1v-.9c0-.4-.4-.8-.8-.8H4.8c-.4 0-.8.4-.8.8v8.1c0 .4.4.8.8.8h.9c.6 0 1 .4 1 1s-.4 1-1 1z"/></svg>
