<svg id="Layer_1" xmlns="http://www.w3.org/2000/svg" viewBox="0 0 24 24"><style>.st0{fill:#0a1f33}</style><path class="st0" d="M20 5.6h-3.5v-.8c0-1.5-1.2-2.8-2.8-2.8h-3.6C8.7 2 7.5 3.3 7.5 4.8v.8H4c-.5 0-1 .4-1 1s.4 1 1 1h.8v11.6C4.8 20.7 6 22 7.5 22h8.9c1.5 0 2.8-1.3 2.8-2.8V7.6h.8c.5 0 1-.4 1-1s-.4-1-1-1zM9.4 4.8c0-.4.4-.8.8-.8h3.6c.4 0 .8.4.8.8v.8H9.4v-.8zm7.8 14.4c0 .4-.4.8-.8.8H7.5c-.4 0-.8-.4-.8-.8V7.6h10.5v11.6z"/><path class="st0" d="M10.2 10.1c-.5 0-1 .4-1 1v5.4c0 .6.4 1 1 1s1-.4 1-1v-5.4c0-.6-.4-1-1-1zM13.8 10.1c-.5 0-1 .4-1 1v5.4c0 .6.4 1 1 1 .5 0 1-.4 1-1v-5.4c0-.6-.5-1-1-1z"/></svg>