<svg width="56px" height="56px" viewBox="0 0 56 56" version="1.1" xmlns="http://www.w3.org/2000/svg" xmlns:xlink="http://www.w3.org/1999/xlink">
    <defs></defs>
    <g stroke="none" stroke-width="1" fill="none" fill-rule="evenodd">
        <g transform="translate(-692.000000, -400.000000)" fill="#2E9AFD">
            <g>
                <g transform="translate(383.000000, 80.000000)">
                    <path d="M345.48902,321.30997 L341.382048,325.416942 C339.963472,325.143299 338.498471,325 337,325 C324.297451,325 314,335.297451 314,348 C314,360.702549 324.297451,371 337,371 C349.702549,371 360,360.702549 360,348 C360,346.195614 359.792218,344.439757 359.399277,342.755052 L363.427821,338.726508 C364.446203,341.628851 365,344.749753 365,348 C365,363.463973 352.463973,376 337,376 C321.536027,376 309,363.463973 309,348 C309,332.536027 321.536027,320 337,320 C339.959348,320 342.811468,320.459103 345.48902,321.30997 Z"></path>
                </g>
            </g>
        </g>
    </g>
</svg>
